# xmcd CD database file
#
# Track frame offsets:
#	150
#	11082
#	23857
#	36527
#	49872
#	61425
#	75225
#	86737
#	100515
#	112365
#	127550
#	141322
#	154940
#	168555
#
# Disc length: 2413 seconds
#
# Revision: 2
# Processed by: cddbd v1.5.2PL0 Copyright (c) Steve Scherf et al.
# Submitted via: CDex 1.51
#
DISCID=b7096b0e
DTITLE=Etta James - Etta James
DYEAR=1988
DGENRE=
TTITLE0=Tell Mama
TTITLE1=Something's Got A Hold On Me
TTITLE2=Spoonful
TTITLE3=Pushover
TTITLE4=Stop The Wedding
TTITLE5=At Last
TTITLE6=Security
TTITLE7=Trust In Me
TTITLE8=I'd Rather Go Blind
TTITLE9=Sunday Kind Of Love
TTITLE10=My Dearest Darling
TTITLE11=All I Could Do Was Cry
TTITLE12=Fool That I Am
TTITLE13=If I Can't Have You
EXTD=The Silver Collection YEAR: 1988
EXTT0=
EXTT1=
EXTT2=
EXTT3=
EXTT4=
EXTT5=
EXTT6=
EXTT7=
EXTT8=
EXTT9=
EXTT10=
EXTT11=
EXTT12=
EXTT13=
PLAYORDER=
